<svg width="16" height="13" viewBox="0 0 16 13" fill="none" xmlns="http://www.w3.org/2000/svg">
<path d="M14.4778 1.59725C13.9277 0.874475 13.1505 0.357588 12.2713 0.12963C11.3921 -0.098328 10.4617 -0.0241248 9.6297 0.340319C8.88503 0.661672 8.22088 1.20347 7.68224 1.92247C7.14361 1.20171 6.47945 0.659914 5.73479 0.340319C4.90279 -0.0241248 3.97243 -0.098328 3.09318 0.12963C2.21394 0.357588 1.43683 0.874475 0.88671 1.59725C0.306587 2.35739 0 3.30739 0 4.34423C0 5.83637 0.889875 7.47338 2.64466 9.21164C4.07458 10.6275 5.76432 11.787 6.644 12.352C6.95395 12.5504 7.31424 12.6558 7.68224 12.6558C8.05024 12.6558 8.41054 12.5504 8.72049 12.352C9.59946 11.787 11.2899 10.6275 12.7198 9.21164C14.4746 7.47408 15.3645 5.83637 15.3645 4.34423C15.3645 3.30739 15.0579 2.35739 14.4778 1.59725Z" fill="#343736"/>
</svg>
