<svg width="23" height="23" viewBox="0 0 23 23" fill="none" xmlns="http://www.w3.org/2000/svg">
<mask id="path-1-outside-1_1_1248" maskUnits="userSpaceOnUse" x="-0.876587" y="2.33783" width="24" height="20" fill="black">
<rect fill="white" x="-0.876587" y="2.33783" width="24" height="20"/>
<path d="M20.3679 9.65255C20.0548 9.54415 19.7275 9.48255 19.3964 9.46974C19.3306 9.46462 19.2502 9.45877 19.1851 9.45073C19.2177 9.40758 19.2557 9.36005 19.2875 9.31983C19.5621 9.0138 19.7599 8.64686 19.8648 8.24929C20.0769 7.32317 20.124 5.58025 18.9559 4.92213C18.6997 4.78471 18.4181 4.7012 18.1284 4.67674C17.8387 4.65228 17.5471 4.68738 17.2714 4.7799C16.5331 5.00158 15.9085 5.49914 15.5274 6.16926C15.1113 6.97363 15.3344 7.79153 15.5139 8.44855C15.6236 8.85513 15.7296 9.23903 15.5984 9.36261C15.4459 9.50886 14.9911 9.38638 14.5508 9.26609C14.413 9.22952 14.2715 9.19296 14.1297 9.1564C13.8977 8.64385 13.523 8.20899 13.0504 7.90384C12.5778 7.5987 12.0272 7.43619 11.4646 7.43578C11.4544 7.43578 11.4449 7.43578 11.4346 7.43578C11.3992 7.15769 11.3294 6.88505 11.227 6.6241C10.4979 4.77295 8.4508 3.83696 7.10787 4.23585C6.72352 4.35578 6.37959 4.57916 6.11375 4.88154C5.81456 4.45298 5.42709 4.09344 4.97739 3.82709C4.4668 3.55648 3.90589 3.39409 3.3297 3.35005C2.75352 3.30601 2.17444 3.38128 1.62866 3.57115C1.32417 3.65434 1.04105 3.80181 0.798363 4.00363C0.555674 4.20545 0.359052 4.45693 0.221741 4.74114C-0.119384 5.60474 0.514239 6.58498 1.66595 8.36446C1.7888 8.55458 1.91713 8.74069 2.04437 8.92788C1.74089 9.0403 1.44603 9.17472 1.16212 9.33007C0.770995 9.51871 0.455354 9.83435 0.266713 10.2255C0.150737 10.6253 0.104602 11.0421 0.130336 11.4576C0.133529 14.2688 1.25166 16.9638 3.23942 18.9516C5.22719 20.9394 7.92226 22.0575 10.7334 22.0607H11.4646C14.2758 22.0575 16.9708 20.9394 18.9586 18.9516C20.9464 16.9638 22.0645 14.2688 22.0677 11.4576C22.0618 11.4011 22.0485 11.3455 22.0282 11.2924C21.7037 10.5543 21.1099 9.96781 20.3679 9.65255ZM14.3611 9.97576C14.9976 10.1483 15.655 10.3268 16.1051 9.89349C16.5493 9.46791 16.3815 8.85293 16.2192 8.25806C16.0568 7.6632 15.892 7.05773 16.1768 6.5071C16.4666 6.01341 16.9325 5.64768 17.4809 5.48336C17.6628 5.42091 17.8554 5.39572 18.0473 5.40929C18.2391 5.42286 18.4263 5.47491 18.5976 5.56233C19.3336 5.97695 19.3325 7.2994 19.1518 8.08732C19.0694 8.37585 18.9205 8.64106 18.7171 8.86171C18.5168 9.11216 18.2674 9.4233 18.4498 9.79258C18.6261 10.1447 19.0067 10.1732 19.3423 10.1981C19.6037 10.2066 19.8624 10.2534 20.1101 10.337C20.49 10.492 20.8164 10.7544 21.0494 11.092H17.3877C17.4718 10.6302 17.5643 10.1681 17.6711 9.71324C17.8703 8.8639 18.1131 8.01383 18.3924 7.18716L17.7 6.95316C17.4129 7.80177 17.1636 8.67414 16.9588 9.54579C16.8393 10.0558 16.7362 10.5743 16.6448 11.092H14.2938C14.3923 10.7284 14.4151 10.3485 14.3611 9.97576ZM11.8303 8.89827V8.19993C12.2382 8.26956 12.6181 8.45297 12.9264 8.72903C13.2347 9.0051 13.4588 9.36261 13.5728 9.76041L12.8116 10.0141L13.0427 10.7088L13.6507 10.5063C13.6388 10.7061 13.5988 10.9033 13.5319 11.092H9.3974C9.31321 10.8574 9.2704 10.61 9.2709 10.3608C9.27102 10.2875 9.27481 10.2143 9.28223 10.1414L9.8866 10.3428L10.1177 9.64816L9.47857 9.435C9.62889 9.11361 9.8548 8.83339 10.137 8.61831C10.4192 8.40322 10.7493 8.25968 11.099 8.19993V8.89827H11.8303ZM7.31664 4.93821C8.31333 4.64133 9.97691 5.44752 10.5469 6.89393C10.6283 7.10086 10.6834 7.31716 10.7111 7.53779C9.96687 7.73305 9.33028 8.2151 8.94055 8.87849C8.55081 9.54188 8.43967 10.3326 8.63142 11.0777L8.60108 11.092H6.91482C7.07131 10.9293 7.22451 10.7629 7.36381 10.5874C8.22781 9.47651 8.76128 8.14459 8.90308 6.74439L8.17622 6.66468C8.04726 7.92783 7.56724 9.12965 6.79051 10.1341C6.77004 10.16 6.74518 10.1827 6.72434 10.2072C7.26126 8.68497 7.18494 7.01357 6.51154 5.54661C6.70668 5.26172 6.9893 5.04814 7.31664 4.93821ZM0.902165 5.01134C1.00366 4.82717 1.1419 4.6658 1.30831 4.53725C1.47473 4.4087 1.66577 4.3157 1.8696 4.264C2.31636 4.11001 2.78971 4.04821 3.26102 4.08234C3.73234 4.11646 4.19185 4.2458 4.61177 4.46254C6.36091 5.47239 6.7609 8.38238 5.93788 10.2116C5.909 10.2759 5.87499 10.3352 5.84209 10.3944C5.77152 10.0964 5.69218 9.80136 5.59566 9.51361C4.99826 7.76245 3.95531 6.19696 2.5694 4.97112L2.07874 5.51297C3.37119 6.65495 4.34429 8.11354 4.90244 9.74542C5.04842 10.1853 5.1617 10.6354 5.24137 11.092H4.60921C3.76391 10.104 2.98571 9.06048 2.27983 7.96849C1.2411 6.36231 0.708019 5.50164 0.902165 5.01061V5.01134ZM0.934705 10.5205C1.05582 10.2754 1.25983 10.0811 1.51056 9.9721C1.8193 9.80263 2.14273 9.66141 2.4769 9.55017C2.85642 10.0789 3.25068 10.5928 3.65969 11.092H0.880958C0.84247 10.9004 0.86116 10.7016 0.934705 10.5205ZM11.4646 21.3294H10.7334C8.17936 21.3266 5.7256 20.3351 3.88648 18.5629C2.04735 16.7907 0.965665 14.3754 0.868162 11.8232H21.3299C21.2323 14.3754 20.1507 16.7907 18.3115 18.5629C16.4724 20.3351 14.0187 21.3266 11.4646 21.3294Z"/>
</mask>
<path d="M20.3679 9.65255C20.0548 9.54415 19.7275 9.48255 19.3964 9.46974C19.3306 9.46462 19.2502 9.45877 19.1851 9.45073C19.2177 9.40758 19.2557 9.36005 19.2875 9.31983C19.5621 9.0138 19.7599 8.64686 19.8648 8.24929C20.0769 7.32317 20.124 5.58025 18.9559 4.92213C18.6997 4.78471 18.4181 4.7012 18.1284 4.67674C17.8387 4.65228 17.5471 4.68738 17.2714 4.7799C16.5331 5.00158 15.9085 5.49914 15.5274 6.16926C15.1113 6.97363 15.3344 7.79153 15.5139 8.44855C15.6236 8.85513 15.7296 9.23903 15.5984 9.36261C15.4459 9.50886 14.9911 9.38638 14.5508 9.26609C14.413 9.22952 14.2715 9.19296 14.1297 9.1564C13.8977 8.64385 13.523 8.20899 13.0504 7.90384C12.5778 7.5987 12.0272 7.43619 11.4646 7.43578C11.4544 7.43578 11.4449 7.43578 11.4346 7.43578C11.3992 7.15769 11.3294 6.88505 11.227 6.6241C10.4979 4.77295 8.4508 3.83696 7.10787 4.23585C6.72352 4.35578 6.37959 4.57916 6.11375 4.88154C5.81456 4.45298 5.42709 4.09344 4.97739 3.82709C4.4668 3.55648 3.90589 3.39409 3.3297 3.35005C2.75352 3.30601 2.17444 3.38128 1.62866 3.57115C1.32417 3.65434 1.04105 3.80181 0.798363 4.00363C0.555674 4.20545 0.359052 4.45693 0.221741 4.74114C-0.119384 5.60474 0.514239 6.58498 1.66595 8.36446C1.7888 8.55458 1.91713 8.74069 2.04437 8.92788C1.74089 9.0403 1.44603 9.17472 1.16212 9.33007C0.770995 9.51871 0.455354 9.83435 0.266713 10.2255C0.150737 10.6253 0.104602 11.0421 0.130336 11.4576C0.133529 14.2688 1.25166 16.9638 3.23942 18.9516C5.22719 20.9394 7.92226 22.0575 10.7334 22.0607H11.4646C14.2758 22.0575 16.9708 20.9394 18.9586 18.9516C20.9464 16.9638 22.0645 14.2688 22.0677 11.4576C22.0618 11.4011 22.0485 11.3455 22.0282 11.2924C21.7037 10.5543 21.1099 9.96781 20.3679 9.65255ZM14.3611 9.97576C14.9976 10.1483 15.655 10.3268 16.1051 9.89349C16.5493 9.46791 16.3815 8.85293 16.2192 8.25806C16.0568 7.6632 15.892 7.05773 16.1768 6.5071C16.4666 6.01341 16.9325 5.64768 17.4809 5.48336C17.6628 5.42091 17.8554 5.39572 18.0473 5.40929C18.2391 5.42286 18.4263 5.47491 18.5976 5.56233C19.3336 5.97695 19.3325 7.2994 19.1518 8.08732C19.0694 8.37585 18.9205 8.64106 18.7171 8.86171C18.5168 9.11216 18.2674 9.4233 18.4498 9.79258C18.6261 10.1447 19.0067 10.1732 19.3423 10.1981C19.6037 10.2066 19.8624 10.2534 20.1101 10.337C20.49 10.492 20.8164 10.7544 21.0494 11.092H17.3877C17.4718 10.6302 17.5643 10.1681 17.6711 9.71324C17.8703 8.8639 18.1131 8.01383 18.3924 7.18716L17.7 6.95316C17.4129 7.80177 17.1636 8.67414 16.9588 9.54579C16.8393 10.0558 16.7362 10.5743 16.6448 11.092H14.2938C14.3923 10.7284 14.4151 10.3485 14.3611 9.97576ZM11.8303 8.89827V8.19993C12.2382 8.26956 12.6181 8.45297 12.9264 8.72903C13.2347 9.0051 13.4588 9.36261 13.5728 9.76041L12.8116 10.0141L13.0427 10.7088L13.6507 10.5063C13.6388 10.7061 13.5988 10.9033 13.5319 11.092H9.3974C9.31321 10.8574 9.2704 10.61 9.2709 10.3608C9.27102 10.2875 9.27481 10.2143 9.28223 10.1414L9.8866 10.3428L10.1177 9.64816L9.47857 9.435C9.62889 9.11361 9.8548 8.83339 10.137 8.61831C10.4192 8.40322 10.7493 8.25968 11.099 8.19993V8.89827H11.8303ZM7.31664 4.93821C8.31333 4.64133 9.97691 5.44752 10.5469 6.89393C10.6283 7.10086 10.6834 7.31716 10.7111 7.53779C9.96687 7.73305 9.33028 8.2151 8.94055 8.87849C8.55081 9.54188 8.43967 10.3326 8.63142 11.0777L8.60108 11.092H6.91482C7.07131 10.9293 7.22451 10.7629 7.36381 10.5874C8.22781 9.47651 8.76128 8.14459 8.90308 6.74439L8.17622 6.66468C8.04726 7.92783 7.56724 9.12965 6.79051 10.1341C6.77004 10.16 6.74518 10.1827 6.72434 10.2072C7.26126 8.68497 7.18494 7.01357 6.51154 5.54661C6.70668 5.26172 6.9893 5.04814 7.31664 4.93821ZM0.902165 5.01134C1.00366 4.82717 1.1419 4.6658 1.30831 4.53725C1.47473 4.4087 1.66577 4.3157 1.8696 4.264C2.31636 4.11001 2.78971 4.04821 3.26102 4.08234C3.73234 4.11646 4.19185 4.2458 4.61177 4.46254C6.36091 5.47239 6.7609 8.38238 5.93788 10.2116C5.909 10.2759 5.87499 10.3352 5.84209 10.3944C5.77152 10.0964 5.69218 9.80136 5.59566 9.51361C4.99826 7.76245 3.95531 6.19696 2.5694 4.97112L2.07874 5.51297C3.37119 6.65495 4.34429 8.11354 4.90244 9.74542C5.04842 10.1853 5.1617 10.6354 5.24137 11.092H4.60921C3.76391 10.104 2.98571 9.06048 2.27983 7.96849C1.2411 6.36231 0.708019 5.50164 0.902165 5.01061V5.01134ZM0.934705 10.5205C1.05582 10.2754 1.25983 10.0811 1.51056 9.9721C1.8193 9.80263 2.14273 9.66141 2.4769 9.55017C2.85642 10.0789 3.25068 10.5928 3.65969 11.092H0.880958C0.84247 10.9004 0.86116 10.7016 0.934705 10.5205ZM11.4646 21.3294H10.7334C8.17936 21.3266 5.7256 20.3351 3.88648 18.5629C2.04735 16.7907 0.965665 14.3754 0.868162 11.8232H21.3299C21.2323 14.3754 20.1507 16.7907 18.3115 18.5629C16.4724 20.3351 14.0187 21.3266 11.4646 21.3294Z" fill="#2F2F2F"/>
<path d="M20.3679 9.65255C20.0548 9.54415 19.7275 9.48255 19.3964 9.46974C19.3306 9.46462 19.2502 9.45877 19.1851 9.45073C19.2177 9.40758 19.2557 9.36005 19.2875 9.31983C19.5621 9.0138 19.7599 8.64686 19.8648 8.24929C20.0769 7.32317 20.124 5.58025 18.9559 4.92213C18.6997 4.78471 18.4181 4.7012 18.1284 4.67674C17.8387 4.65228 17.5471 4.68738 17.2714 4.7799C16.5331 5.00158 15.9085 5.49914 15.5274 6.16926C15.1113 6.97363 15.3344 7.79153 15.5139 8.44855C15.6236 8.85513 15.7296 9.23903 15.5984 9.36261C15.4459 9.50886 14.9911 9.38638 14.5508 9.26609C14.413 9.22952 14.2715 9.19296 14.1297 9.1564C13.8977 8.64385 13.523 8.20899 13.0504 7.90384C12.5778 7.5987 12.0272 7.43619 11.4646 7.43578C11.4544 7.43578 11.4449 7.43578 11.4346 7.43578C11.3992 7.15769 11.3294 6.88505 11.227 6.6241C10.4979 4.77295 8.4508 3.83696 7.10787 4.23585C6.72352 4.35578 6.37959 4.57916 6.11375 4.88154C5.81456 4.45298 5.42709 4.09344 4.97739 3.82709C4.4668 3.55648 3.90589 3.39409 3.3297 3.35005C2.75352 3.30601 2.17444 3.38128 1.62866 3.57115C1.32417 3.65434 1.04105 3.80181 0.798363 4.00363C0.555674 4.20545 0.359052 4.45693 0.221741 4.74114C-0.119384 5.60474 0.514239 6.58498 1.66595 8.36446C1.7888 8.55458 1.91713 8.74069 2.04437 8.92788C1.74089 9.0403 1.44603 9.17472 1.16212 9.33007C0.770995 9.51871 0.455354 9.83435 0.266713 10.2255C0.150737 10.6253 0.104602 11.0421 0.130336 11.4576C0.133529 14.2688 1.25166 16.9638 3.23942 18.9516C5.22719 20.9394 7.92226 22.0575 10.7334 22.0607H11.4646C14.2758 22.0575 16.9708 20.9394 18.9586 18.9516C20.9464 16.9638 22.0645 14.2688 22.0677 11.4576C22.0618 11.4011 22.0485 11.3455 22.0282 11.2924C21.7037 10.5543 21.1099 9.96781 20.3679 9.65255ZM14.3611 9.97576C14.9976 10.1483 15.655 10.3268 16.1051 9.89349C16.5493 9.46791 16.3815 8.85293 16.2192 8.25806C16.0568 7.6632 15.892 7.05773 16.1768 6.5071C16.4666 6.01341 16.9325 5.64768 17.4809 5.48336C17.6628 5.42091 17.8554 5.39572 18.0473 5.40929C18.2391 5.42286 18.4263 5.47491 18.5976 5.56233C19.3336 5.97695 19.3325 7.2994 19.1518 8.08732C19.0694 8.37585 18.9205 8.64106 18.7171 8.86171C18.5168 9.11216 18.2674 9.4233 18.4498 9.79258C18.6261 10.1447 19.0067 10.1732 19.3423 10.1981C19.6037 10.2066 19.8624 10.2534 20.1101 10.337C20.49 10.492 20.8164 10.7544 21.0494 11.092H17.3877C17.4718 10.6302 17.5643 10.1681 17.6711 9.71324C17.8703 8.8639 18.1131 8.01383 18.3924 7.18716L17.7 6.95316C17.4129 7.80177 17.1636 8.67414 16.9588 9.54579C16.8393 10.0558 16.7362 10.5743 16.6448 11.092H14.2938C14.3923 10.7284 14.4151 10.3485 14.3611 9.97576ZM11.8303 8.89827V8.19993C12.2382 8.26956 12.6181 8.45297 12.9264 8.72903C13.2347 9.0051 13.4588 9.36261 13.5728 9.76041L12.8116 10.0141L13.0427 10.7088L13.6507 10.5063C13.6388 10.7061 13.5988 10.9033 13.5319 11.092H9.3974C9.31321 10.8574 9.2704 10.61 9.2709 10.3608C9.27102 10.2875 9.27481 10.2143 9.28223 10.1414L9.8866 10.3428L10.1177 9.64816L9.47857 9.435C9.62889 9.11361 9.8548 8.83339 10.137 8.61831C10.4192 8.40322 10.7493 8.25968 11.099 8.19993V8.89827H11.8303ZM7.31664 4.93821C8.31333 4.64133 9.97691 5.44752 10.5469 6.89393C10.6283 7.10086 10.6834 7.31716 10.7111 7.53779C9.96687 7.73305 9.33028 8.2151 8.94055 8.87849C8.55081 9.54188 8.43967 10.3326 8.63142 11.0777L8.60108 11.092H6.91482C7.07131 10.9293 7.22451 10.7629 7.36381 10.5874C8.22781 9.47651 8.76128 8.14459 8.90308 6.74439L8.17622 6.66468C8.04726 7.92783 7.56724 9.12965 6.79051 10.1341C6.77004 10.16 6.74518 10.1827 6.72434 10.2072C7.26126 8.68497 7.18494 7.01357 6.51154 5.54661C6.70668 5.26172 6.9893 5.04814 7.31664 4.93821ZM0.902165 5.01134C1.00366 4.82717 1.1419 4.6658 1.30831 4.53725C1.47473 4.4087 1.66577 4.3157 1.8696 4.264C2.31636 4.11001 2.78971 4.04821 3.26102 4.08234C3.73234 4.11646 4.19185 4.2458 4.61177 4.46254C6.36091 5.47239 6.7609 8.38238 5.93788 10.2116C5.909 10.2759 5.87499 10.3352 5.84209 10.3944C5.77152 10.0964 5.69218 9.80136 5.59566 9.51361C4.99826 7.76245 3.95531 6.19696 2.5694 4.97112L2.07874 5.51297C3.37119 6.65495 4.34429 8.11354 4.90244 9.74542C5.04842 10.1853 5.1617 10.6354 5.24137 11.092H4.60921C3.76391 10.104 2.98571 9.06048 2.27983 7.96849C1.2411 6.36231 0.708019 5.50164 0.902165 5.01061V5.01134ZM0.934705 10.5205C1.05582 10.2754 1.25983 10.0811 1.51056 9.9721C1.8193 9.80263 2.14273 9.66141 2.4769 9.55017C2.85642 10.0789 3.25068 10.5928 3.65969 11.092H0.880958C0.84247 10.9004 0.86116 10.7016 0.934705 10.5205ZM11.4646 21.3294H10.7334C8.17936 21.3266 5.7256 20.3351 3.88648 18.5629C2.04735 16.7907 0.965665 14.3754 0.868162 11.8232H21.3299C21.2323 14.3754 20.1507 16.7907 18.3115 18.5629C16.4724 20.3351 14.0187 21.3266 11.4646 21.3294Z" stroke="#2F2F2F" stroke-width="0.246728" stroke-linejoin="round" mask="url(#path-1-outside-1_1_1248)"/>
<path d="M11.8302 9.56796C11.8643 9.56796 11.8917 9.59542 11.8917 9.62949V10.3609C11.8917 10.395 11.8643 10.4225 11.8302 10.4225H11.0988C11.0647 10.4225 11.0372 10.395 11.0372 10.3609V9.62949C11.0372 9.59542 11.0647 9.56796 11.0988 9.56796H11.8302Z" fill="#2F2F2F" stroke="#2F2F2F" stroke-width="0.123364" stroke-linejoin="round"/>
<path d="M16.5834 1.15872C16.6967 1.15872 16.806 1.20359 16.8861 1.28372C16.966 1.36375 17.011 1.47239 17.0111 1.58548V2.31693C17.0101 3.20564 16.6561 4.05763 16.0277 4.68607C15.4385 5.27529 14.6529 5.62366 13.8246 5.66556L13.6586 5.66946H12.1957C12.0825 5.66936 11.974 5.62444 11.8939 5.54446C11.8138 5.46433 11.7689 5.35506 11.7689 5.24173V4.51126C11.7699 3.6225 12.1229 2.76959 12.7513 2.14114C13.3798 1.5127 14.2327 1.15971 15.1215 1.15872H16.5834ZM15.1215 2.01321C14.4707 2.01374 13.8452 2.26792 13.3793 2.7222C12.9482 3.14251 12.6866 3.70366 12.6361 4.30032L14.4769 2.72415L14.4974 2.71243C14.5052 2.70983 14.5135 2.70886 14.5219 2.7095C14.5381 2.71078 14.5532 2.71858 14.5638 2.73099L15.0394 3.28568C15.0615 3.3115 15.0583 3.35043 15.0326 3.37259L13.35 4.81497H13.6586C14.3208 4.81419 14.956 4.55078 15.4242 4.08255C15.8924 3.61431 16.1559 2.97909 16.1566 2.31693V2.01321H15.1215Z" fill="#2F2F2F" stroke="#2F2F2F" stroke-width="0.123364" stroke-linejoin="round"/>
<path d="M9.63599 1.15872C9.86502 1.15875 10.0891 1.22679 10.2795 1.35403C10.4699 1.48129 10.6187 1.66202 10.7063 1.87357C10.7939 2.0851 10.8164 2.31795 10.7717 2.54251C10.727 2.76719 10.6173 2.97428 10.4553 3.13626C10.2933 3.29824 10.0862 3.40798 9.86157 3.45267C9.63701 3.49729 9.40416 3.47483 9.19263 3.38724C8.98109 3.29961 8.80035 3.15082 8.6731 2.96048C8.54585 2.77004 8.47781 2.54596 8.47778 2.31693C8.47778 2.00974 8.59944 1.7148 8.81665 1.49759C9.03386 1.28038 9.3288 1.15872 9.63599 1.15872ZM9.63599 2.01321C9.57592 2.01321 9.51699 2.03064 9.46704 2.064C9.41708 2.09738 9.37773 2.1452 9.35474 2.20071C9.33184 2.25615 9.32643 2.31767 9.33813 2.3765C9.34992 2.43526 9.37876 2.48939 9.42114 2.53177C9.46358 2.57415 9.5176 2.60304 9.57642 2.61478C9.63535 2.6265 9.69668 2.6202 9.7522 2.5972C9.80765 2.57419 9.85556 2.53579 9.88892 2.48587C9.92227 2.43594 9.93967 2.37697 9.9397 2.31693C9.9397 2.2364 9.90773 2.15905 9.85083 2.10208C9.79388 2.04513 9.71652 2.01325 9.63599 2.01321Z" fill="#2F2F2F" stroke="#2F2F2F" stroke-width="0.123364" stroke-linejoin="round"/>
<path d="M4.88354 0.0618286C5.11258 0.0618537 5.33666 0.129896 5.5271 0.257141C5.71744 0.3844 5.86623 0.565131 5.95386 0.776672C6.04145 0.988208 6.06391 1.22106 6.01929 1.44562C5.9746 1.67029 5.86486 1.87739 5.70288 2.03937C5.5409 2.20135 5.33381 2.31108 5.10913 2.35577C4.88457 2.4004 4.65172 2.37793 4.44019 2.29034C4.22864 2.20272 4.04791 2.05393 3.92065 1.86359C3.79341 1.67315 3.72537 1.44906 3.72534 1.22003C3.72534 0.912849 3.847 0.617907 4.06421 0.400696C4.28142 0.183485 4.57636 0.0618286 4.88354 0.0618286ZM4.88354 0.916321C4.82348 0.916321 4.76455 0.933746 4.7146 0.967102C4.66463 1.00049 4.62529 1.0483 4.60229 1.10382C4.5794 1.15926 4.57399 1.22077 4.58569 1.2796C4.59748 1.33836 4.62632 1.39249 4.6687 1.43488C4.71113 1.47726 4.76516 1.50615 4.82397 1.51788C4.88291 1.52961 4.94424 1.5233 4.99976 1.50031C5.0552 1.4773 5.10312 1.43889 5.13647 1.38898C5.16983 1.33905 5.18723 1.28008 5.18726 1.22003C5.18726 1.13951 5.15529 1.06216 5.09839 1.00519C5.04144 0.948238 4.96408 0.916354 4.88354 0.916321Z" fill="#2F2F2F" stroke="#2F2F2F" stroke-width="0.123364" stroke-linejoin="round"/>
<path d="M3.38428 15.2303C3.40007 15.2342 3.41387 15.2438 3.42236 15.2577C4.33853 16.769 5.6736 17.9823 7.26514 18.7508C7.27987 18.7579 7.291 18.7715 7.29639 18.787C7.30162 18.8023 7.30052 18.8192 7.29346 18.8338L6.9751 19.492C6.96015 19.5224 6.9236 19.5351 6.89307 19.5204C5.15283 18.6804 3.6935 17.3535 2.69189 15.701C2.67452 15.672 2.68363 15.6347 2.7124 15.617L3.3374 15.2372L3.36084 15.2293C3.36863 15.2282 3.37648 15.2284 3.38428 15.2303Z" fill="#2F2F2F" stroke="#2F2F2F" stroke-width="0.123364" stroke-linejoin="round"/>
<path d="M8.54089 19.0741C8.57496 19.0741 8.60242 19.1015 8.60242 19.1356V19.867C8.60242 19.9011 8.57496 19.9286 8.54089 19.9286H7.80945C7.77538 19.9286 7.74792 19.9011 7.74792 19.867V19.1356C7.74792 19.1015 7.77538 19.0741 7.80945 19.0741H8.54089Z" fill="#2F2F2F" stroke="#2F2F2F" stroke-width="0.123364" stroke-linejoin="round"/>
</svg>
