<svg width="11" height="11" viewBox="0 0 11 11" fill="none" xmlns="http://www.w3.org/2000/svg">
<path d="M7.86417 7.20921C8.49011 6.44793 8.86603 5.47469 8.86603 4.41579C8.86603 1.98092 6.87738 0 4.43302 0C1.98865 0 0 1.98092 0 4.41579C0 6.85065 1.98865 8.83157 4.43302 8.83157C5.49605 8.83157 6.4722 8.45711 7.23734 7.83361L9.88297 10.4689C9.96985 10.5555 10.0833 10.5979 10.1968 10.5979C10.3103 10.5979 10.4238 10.5546 10.5107 10.4689C10.6836 10.2967 10.6836 10.0168 10.5107 9.84455L7.86417 7.20921ZM4.43302 7.94842C2.47717 7.94842 0.886603 6.36403 0.886603 4.41579C0.886603 2.46754 2.47717 0.883157 4.43302 0.883157C6.38886 0.883157 7.97943 2.46754 7.97943 4.41579C7.97943 6.36403 6.38886 7.94842 4.43302 7.94842Z" fill="#2F2F2F"/>
</svg>
